<svg width="28" height="28" viewBox="0 0 28 28" fill="none" xmlns="http://www.w3.org/2000/svg">
<path d="M22 10.0409L21.2142 10.1758L20.8591 9.43744C19.9947 7.63013 19.3279 7.32325 17.5838 7.63528L17.1269 7.71766L14.8381 13.0356L18.185 12.4383L17.4194 14.2157L14.0805 14.7945L13.4511 16.2568C12.7087 17.9684 11.7423 19.1866 10.1616 19.9682L14.9228 19.1135C16.7889 18.7829 17.4486 18.2186 18.5814 16.4103L18.9759 15.7831L20.3275 15.5267L19.6981 16.987C18.4382 19.9332 17.375 20.8003 14.6 21.2854L5 23L5.79386 21.1494C8.0181 19.9415 8.64149 19.1269 9.68047 16.7171L13.2534 8.41381L12.6986 8.5137C9.43233 9.09863 7.79618 11.255 7.69228 13.463C7.65899 14.157 7.79315 14.9346 8.08064 15.5452C6.58168 14.8007 5.5205 13.5546 5.58506 12.1901C5.69804 9.8092 7.97674 7.43549 14.0674 6.3439L21.6056 5L22 10.0409Z" fill="white"/>
</svg>
