<?xml version="1.0" standalone="no"?>
<!DOCTYPE svg PUBLIC "-//W3C//DTD SVG 20010904//EN"
 "http://www.w3.org/TR/2001/REC-SVG-20010904/DTD/svg10.dtd">
<svg version="1.0" xmlns="http://www.w3.org/2000/svg"
 width="77.000000pt" height="80.000000pt" viewBox="0 0 77.000000 80.000000"
 preserveAspectRatio="xMidYMid meet">
<metadata>
Created by potrace 1.10, written by Peter Selinger 2001-2011
</metadata>
<g transform="translate(0.000000,80.000000) scale(0.100000,-0.100000)"
fill="#000000" stroke="none">
<path d="M575 768 c-295 -49 -395 -82 -475 -154 -50 -45 -70 -87 -70 -145 0
-37 6 -48 50 -92 53 -53 67 -57 50 -13 -43 114 61 248 218 281 l33 7 -20 -41
c-12 -22 -57 -122 -101 -222 -89 -203 -112 -239 -180 -281 -34 -21 -52 -41
-63 -69 -15 -38 -15 -39 6 -34 12 2 90 16 172 30 323 55 359 66 410 127 30 36
89 158 80 166 -12 13 -56 -16 -87 -58 -52 -69 -84 -85 -218 -110 -117 -22
-145 -32 -115 -43 17 -7 217 26 260 42 l30 12 -20 -20 c-22 -22 -78 -37 -285
-76 -195 -36 -212 -34 -137 20 22 17 55 48 72 70 33 45 205 431 205 463 0 11
-12 30 -26 41 l-25 20 38 9 c21 6 70 15 108 21 39 7 105 19 148 28 42 9 80 14
83 10 4 -3 9 -28 12 -54 l5 -48 -24 22 c-52 48 -132 57 -173 21 -13 -13 -41
-61 -61 -106 -50 -114 -57 -138 -39 -153 21 -17 18 -25 -21 -47 -23 -14 -44
-41 -64 -81 -17 -33 -51 -83 -76 -111 -25 -28 -45 -53 -45 -56 0 -3 18 5 39
17 46 25 89 81 121 156 13 31 29 53 38 53 8 0 43 5 76 11 58 10 62 12 78 50 9
21 13 39 10 39 -4 -1 -36 -7 -72 -15 -36 -8 -68 -14 -72 -15 -3 0 18 53 47
118 47 104 57 118 84 126 54 16 92 -3 126 -62 44 -75 61 -67 56 28 -1 41 -6
91 -9 111 l-7 35 -170 -28z m-335 -115 c0 -5 -16 -18 -35 -31 -46 -29 -93 -95
-107 -149 -11 -47 -23 -55 -33 -22 -20 61 34 141 125 186 51 26 50 25 50 16z"/>
</g>
</svg>
